<svg id="Capa_1" enable-background="new 0 0 512 512" height="512" viewBox="0 0 512 512" width="512" xmlns="http://www.w3.org/2000/svg"><path d="m512 35h-512v122.919h30.931l18.228 221.236c-15.877 3.3-32.317 5.047-49.159 5.047v30c17.529 0 34.8-1.666 51.644-4.895l5.577 67.693h397.557l26.29-319.081h30.932zm-482 30h452v62.919h-178.302c-6.386-20.264-25.352-35-47.698-35s-41.312 14.736-47.698 35h-178.302zm226 97.919c-11.028 0-20-8.972-20-20s8.972-20 20-20 20 8.972 20 20-8.972 20-20 20zm-194.967-5h147.269c4.445 14.104 14.986 25.526 28.518 31.169-16.536 84.986-77.807 154.174-158.227 181.961zm366.115 289.081h-342.297l-3.716-45.095c41.331-12.894 79.203-35.672 110.691-67.16 39.543-39.544 65.352-89.15 75.083-143.039 17.44-3.898 31.473-16.921 36.789-33.787h147.269z"/></svg>